<svg xmlns="http://www.w3.org/2000/svg" width="170" height="36" fill="none"><path fill="#4D6470" d="M8.224 26.5.88 9.7h3.384l6.552 15.192H8.872L15.496 9.7h3.12l-7.32 16.8H8.224Zm18.812 0v-2.592l-.168-.552V18.82c0-.88-.264-1.56-.792-2.04-.528-.496-1.328-.744-2.4-.744-.72 0-1.432.112-2.136.336-.688.224-1.272.536-1.752.936l-1.176-2.184c.688-.528 1.504-.92 2.448-1.176.96-.272 1.952-.408 2.976-.408 1.856 0 3.288.448 4.296 1.344 1.024.88 1.536 2.248 1.536 4.104V26.5h-2.832Zm-4.032.168c-.96 0-1.8-.16-2.52-.48-.72-.336-1.28-.792-1.68-1.368a3.582 3.582 0 0 1-.576-1.992c0-.72.168-1.368.504-1.944.352-.576.92-1.032 1.704-1.368.784-.336 1.824-.504 3.12-.504h3.72v1.992h-3.504c-1.024 0-1.712.168-2.064.504-.352.32-.528.72-.528 1.2 0 .544.216.976.648 1.296.432.32 1.032.48 1.8.48.736 0 1.392-.168 1.968-.504a2.844 2.844 0 0 0 1.272-1.488l.504 1.8c-.288.752-.808 1.336-1.56 1.752-.736.416-1.672.624-2.808.624Zm10.714-.168V8.692h3V26.5h-3Zm12.697.168c-1.312 0-2.48-.28-3.504-.84a6.456 6.456 0 0 1-2.424-2.352c-.592-.992-.888-2.12-.888-3.384 0-1.28.297-2.408.889-3.384a6.279 6.279 0 0 1 2.423-2.328c1.024-.56 2.192-.84 3.505-.84 1.328 0 2.504.28 3.528.84 1.04.56 1.847 1.328 2.423 2.304.593.976.889 2.112.889 3.408 0 1.264-.297 2.392-.889 3.384a6.233 6.233 0 0 1-2.423 2.352c-1.025.56-2.2.84-3.529.84Zm0-2.568c.736 0 1.392-.16 1.968-.48a3.32 3.32 0 0 0 1.344-1.392c.337-.608.505-1.32.505-2.136 0-.832-.169-1.544-.505-2.136a3.32 3.32 0 0 0-1.343-1.392c-.577-.32-1.224-.48-1.944-.48-.736 0-1.392.16-1.968.48-.56.32-1.008.784-1.345 1.392-.336.592-.504 1.304-.504 2.136 0 .816.169 1.528.505 2.136a3.522 3.522 0 0 0 1.343 1.392c.577.32 1.225.48 1.945.48Zm9.71 2.4V13.684h2.855v3.528l-.336-1.032a4.067 4.067 0 0 1 1.8-1.968c.832-.448 1.864-.672 3.096-.672v2.856a1.488 1.488 0 0 0-.36-.048 2.373 2.373 0 0 0-.336-.024c-1.136 0-2.04.336-2.712 1.008-.672.656-1.008 1.64-1.008 2.952V26.5h-3Zm16.998 0V9.7h6.912c1.488 0 2.76.24 3.816.72 1.072.48 1.896 1.168 2.472 2.064.576.896.864 1.96.864 3.192 0 1.232-.288 2.296-.864 3.192-.576.896-1.4 1.584-2.472 2.064-1.056.48-2.328.72-3.816.72h-5.184l1.392-1.464V26.5h-3.12Zm3.12-5.976-1.392-1.512h5.04c1.376 0 2.408-.288 3.096-.864.704-.592 1.056-1.416 1.056-2.472 0-1.072-.352-1.896-1.056-2.472-.688-.576-1.72-.864-3.096-.864h-5.04l1.392-1.536v9.72Zm14.06 5.976V9.7h6.912c1.488 0 2.76.24 3.816.72 1.072.48 1.896 1.168 2.472 2.064.576.896.864 1.96.864 3.192 0 1.232-.288 2.296-.864 3.192-.576.88-1.4 1.56-2.472 2.04-1.056.464-2.328.696-3.816.696H92.03l1.392-1.416V26.5h-3.12Zm10.992 0-4.248-6.096h3.336l4.272 6.096h-3.36Zm-7.872-5.976-1.392-1.488h5.04c1.376 0 2.408-.296 3.096-.888.704-.592 1.056-1.416 1.056-2.472 0-1.072-.352-1.896-1.056-2.472-.688-.576-1.72-.864-3.096-.864h-5.04l1.392-1.536v9.72Zm22.307 6.216c-1.312 0-2.52-.216-3.624-.648a8.867 8.867 0 0 1-2.88-1.8 8.323 8.323 0 0 1-1.896-2.736c-.448-1.056-.672-2.208-.672-3.456 0-1.248.224-2.392.672-3.432a8.004 8.004 0 0 1 1.896-2.736 8.664 8.664 0 0 1 2.88-1.824c1.104-.432 2.304-.648 3.6-.648 1.312 0 2.512.216 3.6.648a8.664 8.664 0 0 1 2.88 1.824 8.004 8.004 0 0 1 1.896 2.736c.448 1.04.672 2.184.672 3.432 0 1.248-.224 2.4-.672 3.456a8.004 8.004 0 0 1-1.896 2.736 8.867 8.867 0 0 1-2.88 1.8c-1.088.432-2.28.648-3.576.648Zm-.024-2.736c.848 0 1.632-.144 2.352-.432a5.507 5.507 0 0 0 1.872-1.224 5.835 5.835 0 0 0 1.224-1.872c.304-.72.456-1.512.456-2.376 0-.864-.152-1.648-.456-2.352a5.507 5.507 0 0 0-1.224-1.872 5.34 5.34 0 0 0-1.872-1.248 6.276 6.276 0 0 0-2.352-.432c-.848 0-1.632.144-2.352.432a5.648 5.648 0 0 0-1.872 1.248 5.815 5.815 0 0 0-1.248 1.872c-.288.704-.432 1.488-.432 2.352 0 .848.144 1.632.432 2.352.304.72.72 1.352 1.248 1.896a5.507 5.507 0 0 0 1.872 1.224c.72.288 1.504.432 2.352.432Z"/><g fill="#4D6470" clip-path="url(#a)"><path d="M149.75 10.5 156.5 21l12.695-19.633a3.918 3.918 0 0 0-1.355-1.01A4.03 4.03 0 0 0 166.172 0h-28.241c-.516 0-1.027.098-1.504.29-.477.19-.91.471-1.275.825a3.799 3.799 0 0 0-.853 1.237A3.722 3.722 0 0 0 134 3.81v6.69h15.75ZM144.5 19.5h-10.497v12.694a3.758 3.758 0 0 0 1.154 2.692A3.994 3.994 0 0 0 137.934 36H155l-10.5-16.5ZM156.5 36h9.549a4.01 4.01 0 0 0 2.795-1.137A3.828 3.828 0 0 0 170 32.13V15l-13.5 21Z"/></g><defs><clipPath id="a"><path fill="#fff" d="M134 0h36v36h-36z"/></clipPath></defs></svg>