<svg xmlns="http://www.w3.org/2000/svg" width="12" height="12" viewBox="0 0 16 16" fill="none"><path d="M12.242 3.758l-.846.846A4.809 4.809 0 0112.8 8c0 2.652-2.148 4.8-4.8 4.8a4.799 4.799 0 01-.6-9.558v1.212A3.599 3.599 0 008 11.6c1.986 0 3.6-1.614 3.6-3.6 0-.996-.402-1.896-1.056-2.544l-.846.846A2.4 2.4 0 115.6 8a2.4 2.4 0 011.8-2.316v1.284c-.36.21-.6.588-.6 1.032 0 .66.54 1.2 1.2 1.2.66 0 1.2-.54 1.2-1.2 0-.444-.24-.828-.6-1.032V2H8C4.688 2 2 4.688 2 8s2.688 6 6 6 6-2.688 6-6a5.981 5.981 0 00-1.758-4.242z" fill="#3A3398"/></svg>